<mxfile host="app.diagrams.net" agent="Mozilla/5.0 (Windows NT 10.0; Win64; x64) AppleWebKit/537.36 (KHTML, like Gecko) Chrome/138.0.0.0 Safari/537.36 Edg/138.0.0.0" version="27.2.0">
  <diagram name="Página-1" id="mZU1n3z7OVjdyx-6Ww8J">
    <mxGraphModel dx="1281" dy="616" grid="1" gridSize="10" guides="1" tooltips="1" connect="1" arrows="1" fold="1" page="1" pageScale="1" pageWidth="827" pageHeight="1169" math="0" shadow="0">
      <root>
        <mxCell id="0" />
        <mxCell id="1" parent="0" />
        <mxCell id="3Fd91SyAOqQoq9g8Vfq0-3" value="" style="edgeStyle=orthogonalEdgeStyle;rounded=0;orthogonalLoop=1;jettySize=auto;html=1;" edge="1" parent="1" source="3Fd91SyAOqQoq9g8Vfq0-1" target="3Fd91SyAOqQoq9g8Vfq0-2">
          <mxGeometry relative="1" as="geometry" />
        </mxCell>
        <mxCell id="3Fd91SyAOqQoq9g8Vfq0-26" value="JDBC 3306" style="edgeLabel;html=1;align=center;verticalAlign=middle;resizable=0;points=[];" vertex="1" connectable="0" parent="3Fd91SyAOqQoq9g8Vfq0-3">
          <mxGeometry x="-0.04" y="1" relative="1" as="geometry">
            <mxPoint as="offset" />
          </mxGeometry>
        </mxCell>
        <mxCell id="3Fd91SyAOqQoq9g8Vfq0-25" style="edgeStyle=orthogonalEdgeStyle;rounded=0;orthogonalLoop=1;jettySize=auto;html=1;entryX=0;entryY=0.5;entryDx=0;entryDy=0;" edge="1" parent="1" source="3Fd91SyAOqQoq9g8Vfq0-1" target="3Fd91SyAOqQoq9g8Vfq0-22">
          <mxGeometry relative="1" as="geometry">
            <Array as="points">
              <mxPoint x="465" y="330" />
            </Array>
          </mxGeometry>
        </mxCell>
        <mxCell id="3Fd91SyAOqQoq9g8Vfq0-27" value="MQTT 1883" style="edgeLabel;html=1;align=center;verticalAlign=middle;resizable=0;points=[];" vertex="1" connectable="0" parent="3Fd91SyAOqQoq9g8Vfq0-25">
          <mxGeometry x="-0.0648" relative="1" as="geometry">
            <mxPoint as="offset" />
          </mxGeometry>
        </mxCell>
        <mxCell id="3Fd91SyAOqQoq9g8Vfq0-1" value="Backend&lt;div&gt;Kotlin + Springboot&lt;/div&gt;" style="rounded=1;whiteSpace=wrap;html=1;" vertex="1" parent="1">
          <mxGeometry x="400" y="170" width="130" height="120" as="geometry" />
        </mxCell>
        <mxCell id="3Fd91SyAOqQoq9g8Vfq0-2" value="MySQL" style="shape=cylinder3;whiteSpace=wrap;html=1;boundedLbl=1;backgroundOutline=1;size=15;" vertex="1" parent="1">
          <mxGeometry x="690" y="190" width="60" height="80" as="geometry" />
        </mxCell>
        <mxCell id="3Fd91SyAOqQoq9g8Vfq0-6" style="edgeStyle=orthogonalEdgeStyle;rounded=0;orthogonalLoop=1;jettySize=auto;html=1;entryX=0;entryY=0.5;entryDx=0;entryDy=0;" edge="1" parent="1" source="3Fd91SyAOqQoq9g8Vfq0-4" target="3Fd91SyAOqQoq9g8Vfq0-5">
          <mxGeometry relative="1" as="geometry" />
        </mxCell>
        <mxCell id="3Fd91SyAOqQoq9g8Vfq0-11" style="edgeStyle=orthogonalEdgeStyle;rounded=0;orthogonalLoop=1;jettySize=auto;html=1;" edge="1" parent="1" source="3Fd91SyAOqQoq9g8Vfq0-4" target="3Fd91SyAOqQoq9g8Vfq0-9">
          <mxGeometry relative="1" as="geometry" />
        </mxCell>
        <mxCell id="3Fd91SyAOqQoq9g8Vfq0-28" value="HTTP 80" style="edgeLabel;html=1;align=center;verticalAlign=middle;resizable=0;points=[];" vertex="1" connectable="0" parent="3Fd91SyAOqQoq9g8Vfq0-11">
          <mxGeometry x="0.5969" y="1" relative="1" as="geometry">
            <mxPoint as="offset" />
          </mxGeometry>
        </mxCell>
        <mxCell id="3Fd91SyAOqQoq9g8Vfq0-12" style="edgeStyle=orthogonalEdgeStyle;rounded=0;orthogonalLoop=1;jettySize=auto;html=1;" edge="1" parent="1" source="3Fd91SyAOqQoq9g8Vfq0-4" target="3Fd91SyAOqQoq9g8Vfq0-10">
          <mxGeometry relative="1" as="geometry" />
        </mxCell>
        <mxCell id="3Fd91SyAOqQoq9g8Vfq0-4" value="Usuário" style="shape=umlActor;verticalLabelPosition=bottom;verticalAlign=top;html=1;outlineConnect=0;" vertex="1" parent="1">
          <mxGeometry x="10" y="190" width="30" height="60" as="geometry" />
        </mxCell>
        <mxCell id="3Fd91SyAOqQoq9g8Vfq0-7" style="edgeStyle=orthogonalEdgeStyle;rounded=0;orthogonalLoop=1;jettySize=auto;html=1;entryX=0.5;entryY=0;entryDx=0;entryDy=0;" edge="1" parent="1" source="3Fd91SyAOqQoq9g8Vfq0-5" target="3Fd91SyAOqQoq9g8Vfq0-1">
          <mxGeometry relative="1" as="geometry" />
        </mxCell>
        <mxCell id="3Fd91SyAOqQoq9g8Vfq0-8" value="HTTP 8080" style="edgeLabel;html=1;align=center;verticalAlign=middle;resizable=0;points=[];" vertex="1" connectable="0" parent="3Fd91SyAOqQoq9g8Vfq0-7">
          <mxGeometry x="0.1004" y="-3" relative="1" as="geometry">
            <mxPoint as="offset" />
          </mxGeometry>
        </mxCell>
        <mxCell id="3Fd91SyAOqQoq9g8Vfq0-5" value="Desktop Application" style="rounded=1;whiteSpace=wrap;html=1;" vertex="1" parent="1">
          <mxGeometry x="150" y="90" width="120" height="60" as="geometry" />
        </mxCell>
        <mxCell id="3Fd91SyAOqQoq9g8Vfq0-9" value="Web Application" style="rounded=1;whiteSpace=wrap;html=1;" vertex="1" parent="1">
          <mxGeometry x="150" y="170" width="120" height="60" as="geometry" />
        </mxCell>
        <mxCell id="3Fd91SyAOqQoq9g8Vfq0-10" value="Mobile Application" style="rounded=1;whiteSpace=wrap;html=1;" vertex="1" parent="1">
          <mxGeometry x="150" y="250" width="120" height="60" as="geometry" />
        </mxCell>
        <mxCell id="3Fd91SyAOqQoq9g8Vfq0-13" style="edgeStyle=orthogonalEdgeStyle;rounded=0;orthogonalLoop=1;jettySize=auto;html=1;entryX=0;entryY=0.25;entryDx=0;entryDy=0;exitX=1;exitY=0.5;exitDx=0;exitDy=0;" edge="1" parent="1" source="3Fd91SyAOqQoq9g8Vfq0-9" target="3Fd91SyAOqQoq9g8Vfq0-1">
          <mxGeometry relative="1" as="geometry">
            <mxPoint x="300" y="120" as="sourcePoint" />
            <mxPoint x="495" y="170" as="targetPoint" />
          </mxGeometry>
        </mxCell>
        <mxCell id="3Fd91SyAOqQoq9g8Vfq0-14" value="HTTP 8080" style="edgeLabel;html=1;align=center;verticalAlign=middle;resizable=0;points=[];" vertex="1" connectable="0" parent="3Fd91SyAOqQoq9g8Vfq0-13">
          <mxGeometry x="0.1004" y="-3" relative="1" as="geometry">
            <mxPoint as="offset" />
          </mxGeometry>
        </mxCell>
        <mxCell id="3Fd91SyAOqQoq9g8Vfq0-15" style="edgeStyle=orthogonalEdgeStyle;rounded=0;orthogonalLoop=1;jettySize=auto;html=1;entryX=0;entryY=0.75;entryDx=0;entryDy=0;exitX=1;exitY=0.5;exitDx=0;exitDy=0;" edge="1" parent="1" source="3Fd91SyAOqQoq9g8Vfq0-10" target="3Fd91SyAOqQoq9g8Vfq0-1">
          <mxGeometry relative="1" as="geometry">
            <mxPoint x="310" y="230" as="sourcePoint" />
            <mxPoint x="505" y="280" as="targetPoint" />
          </mxGeometry>
        </mxCell>
        <mxCell id="3Fd91SyAOqQoq9g8Vfq0-16" value="HTTP 8080" style="edgeLabel;html=1;align=center;verticalAlign=middle;resizable=0;points=[];" vertex="1" connectable="0" parent="3Fd91SyAOqQoq9g8Vfq0-15">
          <mxGeometry x="0.1004" y="-3" relative="1" as="geometry">
            <mxPoint as="offset" />
          </mxGeometry>
        </mxCell>
        <mxCell id="3Fd91SyAOqQoq9g8Vfq0-17" value="&lt;font style=&quot;font-size: 9px;&quot;&gt;SQLite&lt;/font&gt;" style="shape=cylinder3;whiteSpace=wrap;html=1;boundedLbl=1;backgroundOutline=1;size=7.60003662109375;" vertex="1" parent="1">
          <mxGeometry x="260" y="60" width="40" height="50" as="geometry" />
        </mxCell>
        <mxCell id="3Fd91SyAOqQoq9g8Vfq0-18" value="&lt;font style=&quot;font-size: 9px;&quot;&gt;SQLite&lt;/font&gt;" style="shape=cylinder3;whiteSpace=wrap;html=1;boundedLbl=1;backgroundOutline=1;size=7.60003662109375;" vertex="1" parent="1">
          <mxGeometry x="260" y="150" width="40" height="50" as="geometry" />
        </mxCell>
        <mxCell id="3Fd91SyAOqQoq9g8Vfq0-19" value="&lt;font style=&quot;font-size: 9px;&quot;&gt;SQLite&lt;/font&gt;" style="shape=cylinder3;whiteSpace=wrap;html=1;boundedLbl=1;backgroundOutline=1;size=7.60003662109375;" vertex="1" parent="1">
          <mxGeometry x="260" y="290" width="40" height="50" as="geometry" />
        </mxCell>
        <mxCell id="3Fd91SyAOqQoq9g8Vfq0-23" value="MQTT 1883" style="edgeStyle=orthogonalEdgeStyle;rounded=0;orthogonalLoop=1;jettySize=auto;html=1;entryX=0.75;entryY=1;entryDx=0;entryDy=0;" edge="1" parent="1" source="3Fd91SyAOqQoq9g8Vfq0-20" target="3Fd91SyAOqQoq9g8Vfq0-22">
          <mxGeometry relative="1" as="geometry" />
        </mxCell>
        <mxCell id="3Fd91SyAOqQoq9g8Vfq0-20" value="Dispositivo IoT" style="rounded=1;whiteSpace=wrap;html=1;" vertex="1" parent="1">
          <mxGeometry x="640" y="430" width="120" height="60" as="geometry" />
        </mxCell>
        <mxCell id="3Fd91SyAOqQoq9g8Vfq0-21" value="&lt;font style=&quot;font-size: 9px;&quot;&gt;Sensor&lt;/font&gt;" style="shape=parallelogram;perimeter=parallelogramPerimeter;whiteSpace=wrap;html=1;fixedSize=1;" vertex="1" parent="1">
          <mxGeometry x="720" y="480" width="60" height="30" as="geometry" />
        </mxCell>
        <mxCell id="3Fd91SyAOqQoq9g8Vfq0-22" value="Broker Mosquitto" style="rounded=1;whiteSpace=wrap;html=1;" vertex="1" parent="1">
          <mxGeometry x="610" y="300" width="120" height="60" as="geometry" />
        </mxCell>
      </root>
    </mxGraphModel>
  </diagram>
</mxfile>
